# Blender 5.2.1 LTS
# www.blender.org
mtllib body.mtl
o Cube
v -0.223289 1.051428 -0.110844
v 0.223289 1.051428 -0.110844
v -0.223289 1.051428 0.073776
v 0.223289 1.051428 0.073776
v 0.029679 0.802201 -0.143148
v -0.029679 0.802201 -0.143148
v -0.029679 1.051428 -0.143148
v 0.029679 1.051428 -0.143148
v -0.029679 0.802201 0.106079
v 0.029679 0.802201 0.106079
v 0.029679 1.051428 0.106079
v -0.029679 1.051428 0.106079
v -0.023685 0.514994 -0.099447
v -0.197140 0.514994 -0.099447
v 0.197140 0.514994 0.099447
v 0.197140 0.514994 -0.099447
v 0.023685 0.514994 0.099447
v -0.197140 0.514994 0.099447
v 0.023685 0.514994 -0.099447
v -0.023685 0.514994 0.099447
v -0.016086 0.073447 -0.092806
v -0.133889 0.073447 -0.092806
v 0.133889 0.073447 0.042275
v 0.133889 0.073447 -0.092806
v 0.016086 0.073447 0.042275
v -0.133889 0.073447 0.042275
v 0.016086 0.073447 -0.092806
v -0.016086 0.073447 0.042275
v -0.016086 0.000000 -0.092806
v -0.133889 0.000000 -0.092806
v 0.133889 0.000000 0.042275
v 0.133889 0.000000 -0.092806
v 0.016086 0.000000 0.042275
v -0.133889 0.000000 0.042275
v 0.016086 0.000000 -0.092806
v -0.016086 0.000000 0.042275
v 0.016086 0.041969 0.113026
v 0.133889 0.041969 0.113026
v -0.133889 0.041969 0.113026
v -0.016086 0.041969 0.113026
v 0.016086 0.000000 0.113026
v 0.133889 0.000000 0.113026
v -0.133889 0.000000 0.113026
v -0.016086 0.000000 0.113026
v 0.029679 1.634762 -0.157928
v 0.272260 1.634762 -0.125624
v 0.272260 1.634762 0.058996
v -0.029679 1.634762 0.091299
v -0.272260 1.634762 0.058996
v -0.272260 1.634762 -0.125624
v -0.029679 1.634762 -0.157928
v 0.029679 1.634762 0.091299
v -0.248545 0.711530 -0.107246
v -0.254190 0.894163 -0.110844
v -0.179359 0.802201 -0.123215
v 0.254190 0.894163 -0.110844
v 0.248545 0.711530 -0.107246
v 0.179359 0.802201 -0.123215
v -0.254190 0.894163 0.073776
v -0.248545 0.711530 0.081880
v -0.179359 0.802201 0.086147
v 0.248545 0.711530 0.081880
v 0.254190 0.894163 0.073776
v 0.179359 0.802201 0.086147
vn -0.1464 -0.0312 -0.9887
vn 0.9965 -0.0837 -0.0000
vn 0.1465 0.0189 0.9890
vn -0.0000 -1.0000 -0.0000
vn -0.0000 -0.0000 1.0000
vn -0.0000 -0.0000 -1.0000
vn 0.9899 -0.1418 -0.0000
vn -0.9899 -0.1418 -0.0000
vn 0.9998 0.0209 -0.0000
vn -0.9998 0.0209 -0.0000
vn 1.0000 -0.0000 -0.0000
vn -0.9999 0.0172 -0.0000
vn -0.0000 -0.0150 -0.9999
vn -0.0000 -0.1284 0.9917
vn 0.9999 0.0172 -0.0000
vn -1.0000 -0.0000 -0.0000
vn -0.0000 0.9137 0.4065
vn -0.0000 1.0000 -0.0000
vn -0.0000 0.0253 0.9997
vn -0.1465 0.0189 0.9890
vn -0.0000 -0.0253 -0.9997
vn 0.1464 -0.0312 -0.9887
vn -0.9965 -0.0837 -0.0000
vn -0.1932 -0.0253 -0.9808
vn 0.1932 -0.0253 -0.9808
vn -0.1143 0.0405 0.9926
vn 0.1143 0.0405 0.9926
vn 0.9995 -0.0309 -0.0000
vn -0.9995 -0.0309 -0.0000
vn -0.0728 -0.1084 -0.9914
vn -0.1477 0.0134 -0.9889
vn -0.9812 0.1928 -0.0000
vn -0.9675 -0.2530 -0.0000
vn 0.9812 0.1928 -0.0000
vn 0.9675 -0.2530 -0.0000
vn 0.1477 0.0134 -0.9889
vn 0.0728 -0.1084 -0.9914
vn -0.1477 0.0134 0.9889
vn -0.0732 0.0197 0.9971
vn 0.1477 0.0134 0.9889
vn 0.0732 0.0197 0.9971
vt 0.625000 0.083333
vt 0.625000 0.000000
vt 0.625000 0.500000
vt 0.625000 0.250000
vt 0.625000 0.583333
vt 0.125000 0.583333
vt 0.375000 0.583333
vt 0.375000 0.666667
vt 0.125000 0.666667
vt 0.625000 0.666667
vt 0.375000 0.083333
vt 0.625000 0.166667
vt 0.375000 0.166667
vt 0.375000 0.250000
vt 0.375000 0.500000
vt 0.375000 0.750000
vt 0.375000 1.000000
vt 0.375000 0.000000
vt 0.125000 0.750000
vt 0.125000 0.500000
vt 0.875000 0.666667
vt 0.875000 0.750000
vt 0.625000 0.750000
vt 0.875000 0.500000
vt 0.875000 0.583333
vt 0.625000 1.000000
vt 0.421124 0.003050
vt 0.375000 0.031914
vt 0.467247 0.250000
vt 0.354232 0.251218
vt 0.375000 0.218086
vt 0.467247 0.750000
vt 0.354232 0.747256
vt 0.375000 0.718086
vt 0.444186 0.501477
vt 0.375000 0.531914
vt 0.467247 1.000000
s 0
f 7/1/1 1/2/1 50/2/1 51/1/1
f 4/3/2 2/4/2 46/4/2 47/3/2
f 11/5/3 4/3/3 47/3/3 52/5/3
f 5/6/4 10/7/4 9/8/4 6/9/4
f 10/7/5 11/5/5 12/10/5 9/8/5
f 6/11/6 7/1/6 8/12/6 5/13/6
f 16/14/7 15/15/7 23/15/7 24/14/7
f 18/16/8 14/17/8 22/17/8 26/16/8
f 6/9/9 9/8/9 20/8/9 13/9/9
f 10/7/10 5/6/10 19/6/10 17/7/10
f 33/7/4 31/15/4 42/15/4 41/7/4
f 21/9/11 28/8/11 36/8/11 29/9/11
f 17/7/12 19/6/12 27/6/12 25/7/12
f 19/13/13 16/14/13 24/14/13 27/13/13
f 15/15/14 17/7/14 25/7/14 23/15/14
f 14/18/13 13/11/13 21/11/13 22/18/13
f 13/9/15 20/8/15 28/8/15 21/9/15
f 20/8/14 18/16/14 26/16/14 28/8/14
f 29/9/4 36/8/4 34/16/4 30/19/4
f 32/20/4 31/15/4 33/7/4 35/6/4
f 26/16/16 22/17/16 30/17/16 34/16/16
f 24/14/11 23/15/11 31/15/11 32/14/11
f 25/7/16 27/6/16 35/6/16 33/7/16
f 27/13/6 24/14/6 32/14/6 35/13/6
f 25/7/16 33/7/16 41/7/16 37/7/16
f 22/18/6 21/11/6 29/11/6 30/18/6
f 40/8/5 39/16/5 43/16/5 44/8/5
f 38/15/5 37/7/5 41/7/5 42/15/5
f 28/8/17 26/16/17 39/16/17 40/8/17
f 34/16/4 36/8/4 44/8/4 43/16/4
f 31/15/11 23/15/11 38/15/11 42/15/11
f 26/16/16 34/16/16 43/16/16 39/16/16
f 36/8/11 28/8/11 40/8/11 44/8/11
f 23/15/17 25/7/17 37/7/17 38/15/17
f 48/10/18 51/21/18 50/22/18 49/23/18
f 47/3/18 46/24/18 45/25/18 52/5/18
f 52/5/18 45/25/18 51/21/18 48/10/18
f 12/10/19 11/5/19 52/5/19 48/10/19
f 3/23/20 12/10/20 48/10/20 49/23/20
f 8/12/21 7/1/21 51/1/21 45/12/21
f 2/4/22 8/12/22 45/12/22 46/4/22
f 1/26/23 3/23/23 49/23/23 50/26/23
f 53/18/24 54/27/24 55/28/24
f 56/29/25 57/30/25 58/31/25
f 59/32/26 60/33/26 61/34/26
f 62/15/27 63/35/27 64/36/27
f 62/15/28 57/30/28 56/29/28 63/35/28
f 53/17/29 60/33/29 59/32/29 54/37/29
f 53/18/30 55/28/30 6/11/30 13/11/30 14/18/30
f 55/28/31 54/27/31 1/2/31 7/1/31 6/11/31
f 59/32/32 3/23/32 1/26/32 54/37/32
f 60/33/33 53/17/33 14/17/33 18/16/33
f 56/29/34 2/4/34 4/3/34 63/35/34
f 57/30/35 62/15/35 15/15/35 16/14/35
f 5/13/36 8/12/36 2/4/36 56/29/36 58/31/36
f 5/13/37 58/31/37 57/30/37 16/14/37 19/13/37
f 9/8/38 12/10/38 3/23/38 59/32/38 61/34/38
f 9/8/39 61/34/39 60/33/39 18/16/39 20/8/39
f 64/36/40 63/35/40 4/3/40 11/5/40 10/7/40
f 62/15/41 64/36/41 10/7/41 17/7/41 15/15/41
