# Blender 5.2.1 LTS
# www.blender.org
mtllib hand.mtl
o Cube
v -0.139831 -0.160170 0.000369
v -0.139831 0.072516 0.004096
v -0.139831 -0.160489 -0.097032
v -0.139831 0.072835 -0.097032
v 0.136393 -0.160170 0.000369
v 0.135623 0.038761 0.004096
v 0.123555 -0.160489 -0.097032
v 0.135697 0.039070 -0.097032
v -0.107532 -0.184858 -0.311828
v 0.104093 -0.184858 -0.311828
v 0.067337 -0.191628 -0.097032
v -0.001719 -0.191628 -0.097032
v -0.070775 -0.191628 -0.097032
v -0.070775 0.072835 -0.097032
v -0.001719 0.072835 -0.097032
v 0.068838 0.057704 -0.097032
v -0.070775 -0.160170 0.000369
v -0.001719 -0.160170 0.000369
v 0.067337 -0.160170 0.000369
v 0.068764 0.057394 0.004096
v -0.001719 0.072516 0.004096
v -0.070775 0.072516 0.004096
v 0.051187 -0.215997 -0.311828
v -0.001719 -0.215997 -0.311828
v -0.054626 -0.215997 -0.311828
v -0.139831 -0.020466 0.013547
v -0.139831 -0.020466 -0.097032
v 0.123555 -0.050441 -0.097032
v 0.136393 -0.020466 0.013547
v -0.107532 -0.092346 -0.311828
v 0.104093 -0.092346 -0.311828
v -0.054626 -0.062371 -0.311828
v -0.001719 -0.062371 -0.311828
v 0.051187 -0.062371 -0.311828
v 0.067337 -0.020466 0.013547
v -0.001719 -0.020466 0.013547
v -0.070775 -0.020466 0.013547
v -0.224072 -0.051023 -0.097032
v -0.224012 -0.050912 0.000369
v -0.197507 -0.002413 -0.097032
v -0.197507 -0.002413 0.013547
v -0.261079 -0.002640 -0.097032
v -0.261024 -0.002586 0.000369
v -0.236840 0.021001 -0.097032
v -0.236840 0.021001 0.013547
v -0.070775 -0.020466 -0.097032
v -0.001719 -0.020466 -0.097032
v 0.067337 -0.020466 -0.097032
v 0.071947 0.263698 -0.054365
v 0.131782 0.263698 -0.054365
v 0.131782 0.264453 -0.002656
v -0.066165 0.313994 -0.051894
v -0.006329 0.313994 -0.051894
v 0.071947 0.264453 -0.002656
v -0.006329 0.314992 -0.002656
v -0.066165 0.314992 -0.002656
v -0.135221 0.280017 -0.002211
v -0.135221 0.279166 -0.053162
v -0.075385 0.280017 -0.002211
v -0.075385 0.279166 -0.053162
v 0.002891 0.309623 -0.051665
v 0.062727 0.309623 -0.051665
v 0.062727 0.310622 -0.002211
v 0.002891 0.310622 -0.002211
v -0.137526 0.199628 0.000942
v -0.137526 0.201054 -0.072410
v -0.073080 0.199628 0.000942
v -0.073080 0.201054 -0.072410
v -0.004024 0.218689 -0.074344
v -0.004024 0.217115 0.000720
v -0.068470 0.217115 0.000720
v -0.068470 0.218689 -0.074344
v 0.000586 0.214931 0.000942
v 0.000586 0.216504 -0.073906
v 0.065032 0.216504 -0.073906
v 0.065032 0.214931 0.000942
v 0.134088 0.191846 0.000720
v 0.069642 0.191846 0.000720
v 0.069642 0.193175 -0.071873
v 0.134088 0.193175 -0.071873
v 0.109964 -0.172674 -0.204430
v -0.123682 -0.172674 -0.204430
v 0.059262 -0.203813 -0.204430
v -0.001719 -0.203813 -0.204430
v -0.062700 -0.203813 -0.204430
v -0.123682 -0.092346 -0.204430
v 0.109964 -0.092346 -0.204430
v 0.059262 -0.062371 -0.204430
v -0.001719 -0.062371 -0.204430
v -0.062700 -0.062371 -0.204430
vn -1.0000 -0.0000 -0.0000
vn 0.9985 -0.0000 -0.0546
vn 0.9957 -0.0792 -0.0489
vn -0.0000 0.1011 0.9949
vn 0.2388 -0.9608 0.1410
vn -0.9996 0.0291 0.0001
vn -0.4793 -0.8765 0.0454
vn 0.5141 -0.8553 0.0637
vn -0.0000 -0.9936 0.1127
vn -0.0000 0.0345 0.9994
vn -0.9997 0.0244 0.0001
vn 0.9997 0.0238 0.0001
vn -0.2172 -0.9634 0.1572
vn -0.0000 -0.9516 0.3073
vn 0.0187 0.1365 0.9905
vn 0.0119 0.1099 0.9939
vn -0.0000 -0.0939 0.9956
vn -0.0000 -0.0000 -1.0000
vn -0.9889 -0.0000 -0.1487
vn 0.9923 0.0065 -0.1234
vn -0.7923 -0.6101 0.0016
vn -0.1980 -0.2108 0.9573
vn -0.1101 -0.1226 0.9863
vn 0.2987 0.9543 -0.0000
vn -0.6982 0.7159 -0.0000
vn -0.7941 -0.6078 0.0010
vn 0.5115 0.8593 -0.0000
vn 0.5006 0.8651 -0.0325
vn -0.0000 0.9316 -0.3635
vn -0.1975 0.8569 -0.4762
vn -0.0000 0.9999 -0.0146
vn -0.0000 0.9998 -0.0203
vn -0.0000 0.0464 0.9989
vn -0.9997 0.0238 0.0001
vn -0.9995 0.0322 0.0001
vn -0.0000 0.2409 -0.9705
vn -0.0000 0.2293 -0.9734
vn 0.9995 0.0322 0.0001
vn -0.0000 0.9999 -0.0167
vn -0.0000 0.9998 -0.0202
vn -0.0000 0.0392 0.9992
vn -0.0000 0.2323 -0.9726
vn -0.0000 0.2393 -0.9710
vn 0.9996 0.0291 0.0001
vn 0.9997 0.0244 0.0001
vn -0.0000 0.0329 0.9995
vn 0.9998 0.0180 0.0002
vn -0.0000 0.1886 -0.9821
vn -0.0000 0.0248 0.9997
vn -0.9998 0.0180 0.0002
vn -0.0000 0.1537 -0.9881
vn -0.9999 0.0159 0.0002
vn 0.9999 0.0159 0.0002
vn -0.0000 0.0233 0.9997
vn 0.0024 0.0210 0.9998
vn 0.9997 0.0238 0.0007
vn 0.0169 0.1512 -0.9884
vn -0.9999 0.0161 0.0002
vn 0.9999 0.0102 0.0005
vn 0.0243 0.1712 -0.9849
vn -1.0000 0.0063 -0.0004
vn 0.0033 0.0235 0.9997
vn -0.4652 0.8837 -0.0525
vn -0.0000 1.0000 -0.0000
vn 0.4557 0.8127 -0.3631
vn 0.5028 -0.8631 0.0472
vn -0.4313 -0.9006 0.0535
vn 0.9921 -0.0000 -0.1255
vt 0.500000 0.000000
vt 0.625000 0.000000
vt 0.625000 0.250000
vt 0.500000 0.250000
vt 0.500000 0.500000
vt 0.375000 0.500000
vt 0.625000 0.500000
vt 0.625000 0.750000
vt 0.500000 0.750000
vt 0.500000 0.937500
vt 0.625000 0.937500
vt 0.625000 1.000000
vt 0.500000 1.000000
vt 0.312500 0.500000
vt 0.375000 0.750000
vt 0.312500 0.750000
vt 0.187500 0.500000
vt 0.125000 0.500000
vt 0.250000 0.500000
vt 0.625000 0.875000
vt 0.750000 0.500000
vt 0.750000 0.750000
vt 0.187500 0.750000
vt 0.125000 0.750000
vt 0.250000 0.750000
vt 0.625000 0.812500
vt 0.500000 0.812500
vt 0.500000 0.875000
vt 0.375000 0.875000
vt 0.375000 0.937500
vt 0.375000 0.812500
vt 0.375000 0.375000
vt 0.500000 0.375000
vt 0.500000 0.437500
vt 0.375000 0.437500
vt 0.375000 0.312500
vt 0.500000 0.312500
vt 0.375000 0.250000
vt 0.375000 1.000000
vt 0.375000 0.000000
vt 0.000000 0.000000
vt 0.687500 0.500000
vt 0.812500 0.500000
vt 0.250000 0.218750
vt 0.250000 0.187500
vt 0.250000 0.156250
vt 0.687500 0.750000
vt 0.812500 0.750000
vt 0.875000 0.500000
vt 0.875000 0.750000
s 0
f 26/1/1 2/2/1 4/3/1 27/4/1
f 87/5/2 81/6/2 10/6/2 31/5/2
f 28/5/3 8/7/3 6/8/3 29/9/3
f 37/10/4 22/11/4 2/12/4 26/13/4
f 11/14/5 7/6/5 5/15/5 19/16/5
f 66/3/6 65/2/6 57/2/6 58/3/6
f 85/17/7 82/18/7 9/18/7 25/17/7
f 81/6/8 83/14/8 23/14/8 10/6/8
f 83/14/9 84/19/9 24/19/9 23/14/9
f 84/19/9 85/17/9 25/17/9 24/19/9
f 71/11/10 70/20/10 55/20/10 56/11/10
f 74/21/11 73/22/11 64/22/11 61/21/11
f 70/22/12 69/21/12 53/21/12 55/22/12
f 3/18/13 13/17/13 17/23/13 1/24/13
f 13/17/14 12/19/14 18/25/14 17/23/14
f 12/19/14 11/14/14 19/16/14 18/25/14
f 29/9/15 6/8/15 20/26/15 35/27/15
f 35/27/16 20/26/16 21/20/16 36/28/16
f 36/28/4 21/20/4 22/11/4 37/10/4
f 18/29/17 36/28/17 37/10/17 17/30/17
f 19/31/17 35/27/17 36/28/17 18/29/17
f 5/15/17 29/9/17 35/27/17 19/31/17
f 24/32/18 33/33/18 34/34/18 23/35/18
f 25/36/18 32/37/18 33/33/18 24/32/18
f 9/38/18 30/4/18 32/37/18 25/36/18
f 82/38/19 86/4/19 30/4/19 9/38/19
f 23/35/18 34/34/18 31/5/18 10/6/18
f 17/30/17 37/10/17 26/13/17 1/39/17
f 7/6/20 28/5/20 29/9/20 5/15/20
f 3/18/21 1/24/21 39/24/21 38/18/21
f 39/39/22 41/13/22 45/13/22 43/39/22
f 27/4/18 3/38/18 38/38/18 40/4/18
f 1/39/23 26/13/23 41/13/23 39/39/23
f 26/1/24 27/4/24 40/4/24 41/1/24
f 43/40/25 45/1/25 44/4/25 42/38/25
f 38/18/26 39/24/26 43/24/26 42/18/26
f 41/1/27 40/4/27 44/4/27 45/1/27
f 40/4/18 38/38/18 42/38/18 44/4/18
f 8/7/18 28/5/18 48/41/18 16/42/18
f 16/42/18 48/41/18 47/41/18 15/21/18
f 15/21/18 47/41/18 46/41/18 14/43/18
f 14/43/18 46/41/18 27/4/18 4/3/18
f 87/5/28 31/5/28 34/34/28 88/44/28
f 88/44/29 89/45/29 47/41/29 48/41/29
f 89/45/29 90/46/29 46/41/29 47/41/29
f 90/46/30 86/4/30 27/4/30 46/41/30
f 50/7/31 49/42/31 54/47/31 51/8/31
f 53/21/32 52/43/32 56/48/32 55/22/32
f 78/26/33 77/8/33 51/8/33 54/26/33
f 72/43/34 71/48/34 56/48/34 52/43/34
f 79/42/35 78/47/35 54/47/35 49/42/35
f 80/7/36 79/42/36 49/42/36 50/7/36
f 69/21/37 72/43/37 52/43/37 53/21/37
f 77/8/38 80/7/38 50/7/38 51/8/38
f 60/43/39 58/49/39 57/50/39 59/48/39
f 62/42/40 61/21/40 64/22/40 63/47/40
f 65/12/41 67/11/41 59/11/41 57/12/41
f 75/42/42 74/21/42 61/21/42 62/42/42
f 68/43/43 66/3/43 58/3/43 60/43/43
f 67/48/44 68/43/44 60/43/44 59/48/44
f 76/47/45 75/42/45 62/42/45 63/47/45
f 73/20/46 76/26/46 63/26/46 64/20/46
f 22/48/47 14/43/47 68/43/47 67/48/47
f 14/43/48 4/3/48 66/3/48 68/43/48
f 2/12/49 22/11/49 67/11/49 65/12/49
f 4/3/50 2/2/50 65/2/50 66/3/50
f 15/21/51 14/43/51 72/43/51 69/21/51
f 14/43/52 22/48/52 71/48/52 72/43/52
f 21/22/53 15/21/53 69/21/53 70/22/53
f 22/11/54 21/20/54 70/20/54 71/11/54
f 21/20/55 20/26/55 76/26/55 73/20/55
f 20/47/56 16/42/56 75/42/56 76/47/56
f 16/42/57 15/21/57 74/21/57 75/42/57
f 15/21/58 21/22/58 73/22/58 74/21/58
f 6/8/59 8/7/59 80/7/59 77/8/59
f 8/7/60 16/42/60 79/42/60 80/7/60
f 16/42/61 20/47/61 78/47/61 79/42/61
f 20/26/62 6/8/62 77/8/62 78/26/62
f 32/37/63 30/4/63 86/4/63 90/46/63
f 33/33/64 32/37/64 90/46/64 89/45/64
f 34/34/64 33/33/64 89/45/64 88/44/64
f 28/5/65 87/5/65 88/44/65 48/41/65
f 3/38/19 27/4/19 86/4/19 82/38/19
f 12/19/9 13/17/9 85/17/9 84/19/9
f 11/14/9 12/19/9 84/19/9 83/14/9
f 7/6/66 11/14/66 83/14/66 81/6/66
f 13/17/67 3/18/67 82/18/67 85/17/67
f 28/5/68 7/6/68 81/6/68 87/5/68
